<svg width="0" height="528" viewBox="0 0 16 528" fill="none" xmlns="http://www.w3.org/2000/svg">
<path d="M8.35353 0.646423C8.15827 0.451172 7.84169 0.451172 7.64642 0.646423L4.46444 3.82843C4.26918 4.02368 4.26918 4.34027 4.46444 4.53552C4.65971 4.73077 4.97629 4.73077 5.17155 4.53552L7.99998 1.70709L10.8284 4.53552C11.0237 4.73077 11.3402 4.73077 11.5355 4.53552C11.7308 4.34027 11.7308 4.02368 11.5355 3.82843L8.35353 0.646423ZM8.5 520.681C8.5 520.404 8.27614 520.181 8 520.181C7.72386 520.181 7.5 520.404 7.5 520.681L8.5 520.681ZM7.5 506.042C7.5 506.318 7.72386 506.542 8 506.542C8.27614 506.542 8.5 506.318 8.5 506.042L7.5 506.042ZM8.5 491.403C8.5 491.127 8.27614 490.903 8 490.903C7.72386 490.903 7.5 491.127 7.5 491.403L8.5 491.403ZM7.5 476.764C7.5 477.04 7.72386 477.264 8 477.264C8.27614 477.264 8.5 477.04 8.5 476.764L7.5 476.764ZM8.5 462.125C8.5 461.849 8.27614 461.625 8 461.625C7.72385 461.625 7.5 461.849 7.5 462.125L8.5 462.125ZM7.5 447.486C7.5 447.762 7.72385 447.986 8 447.986C8.27614 447.986 8.5 447.762 8.5 447.486L7.5 447.486ZM8.5 432.847C8.5 432.571 8.27614 432.347 8 432.347C7.72385 432.347 7.5 432.571 7.5 432.847L8.5 432.847ZM7.5 418.208C7.5 418.484 7.72385 418.708 8 418.708C8.27614 418.708 8.5 418.484 8.5 418.208L7.5 418.208ZM8.49999 403.569C8.49999 403.293 8.27614 403.069 7.99999 403.069C7.72385 403.069 7.49999 403.293 7.49999 403.569L8.49999 403.569ZM7.49999 388.931C7.49999 389.207 7.72385 389.431 7.99999 389.431C8.27614 389.431 8.49999 389.207 8.49999 388.931L7.49999 388.931ZM8.49999 374.292C8.49999 374.016 8.27614 373.792 7.99999 373.792C7.72385 373.792 7.49999 374.016 7.49999 374.292L8.49999 374.292ZM7.49999 359.653C7.49999 359.929 7.72385 360.153 7.99999 360.153C8.27614 360.153 8.49999 359.929 8.49999 359.653L7.49999 359.653ZM8.49999 345.014C8.49999 344.738 8.27613 344.514 7.99999 344.514C7.72385 344.514 7.49999 344.738 7.49999 345.014L8.49999 345.014ZM7.49999 330.375C7.49999 330.651 7.72385 330.875 7.99999 330.875C8.27613 330.875 8.49999 330.651 8.49999 330.375L7.49999 330.375ZM8.49999 315.736C8.49999 315.46 8.27613 315.236 7.99999 315.236C7.72385 315.236 7.49999 315.46 7.49999 315.736L8.49999 315.736ZM7.49999 301.097C7.49999 301.373 7.72385 301.597 7.99999 301.597C8.27613 301.597 8.49999 301.373 8.49999 301.097L7.49999 301.097ZM8.49999 286.458C8.49999 286.182 8.27613 285.958 7.99999 285.958C7.72385 285.958 7.49999 286.182 7.49999 286.458L8.49999 286.458ZM7.49999 271.819C7.49999 272.096 7.72385 272.319 7.99999 272.319C8.27613 272.319 8.49999 272.096 8.49999 271.819L7.49999 271.819ZM8.49999 257.181C8.49999 256.904 8.27613 256.681 7.99999 256.681C7.72385 256.681 7.49999 256.904 7.49999 257.181L8.49999 257.181ZM7.49999 242.542C7.49999 242.818 7.72385 243.042 7.99999 243.042C8.27613 243.042 8.49999 242.818 8.49999 242.542L7.49999 242.542ZM8.49999 227.903C8.49999 227.627 8.27613 227.403 7.99999 227.403C7.72384 227.403 7.49999 227.627 7.49999 227.903L8.49999 227.903ZM7.49999 213.264C7.49999 213.54 7.72384 213.764 7.99999 213.764C8.27613 213.764 8.49999 213.54 8.49999 213.264L7.49999 213.264ZM8.49999 198.625C8.49999 198.349 8.27613 198.125 7.99999 198.125C7.72384 198.125 7.49999 198.349 7.49999 198.625L8.49999 198.625ZM7.49998 183.986C7.49998 184.262 7.72384 184.486 7.99998 184.486C8.27613 184.486 8.49998 184.262 8.49998 183.986L7.49998 183.986ZM8.49998 169.347C8.49998 169.071 8.27613 168.847 7.99998 168.847C7.72384 168.847 7.49998 169.071 7.49998 169.347L8.49998 169.347ZM7.49998 154.708C7.49998 154.985 7.72384 155.208 7.99998 155.208C8.27613 155.208 8.49998 154.985 8.49998 154.708L7.49998 154.708ZM8.49998 140.07C8.49998 139.793 8.27613 139.57 7.99998 139.57C7.72384 139.57 7.49998 139.793 7.49998 140.07L8.49998 140.07ZM7.49998 125.431C7.49998 125.707 7.72384 125.931 7.99998 125.931C8.27612 125.931 8.49998 125.707 8.49998 125.431L7.49998 125.431ZM8.49998 110.792C8.49998 110.516 8.27612 110.292 7.99998 110.292C7.72384 110.292 7.49998 110.516 7.49998 110.792L8.49998 110.792ZM7.49998 96.1529C7.49998 96.429 7.72384 96.6529 7.99998 96.6529C8.27612 96.6529 8.49998 96.429 8.49998 96.1529L7.49998 96.1529ZM8.49998 81.514C8.49998 81.2379 8.27612 81.014 7.99998 81.014C7.72384 81.014 7.49998 81.2379 7.49998 81.514L8.49998 81.514ZM7.49998 66.8751C7.49998 67.1512 7.72384 67.3751 7.99998 67.3751C8.27612 67.3751 8.49998 67.1512 8.49998 66.8751L7.49998 66.8751ZM8.49998 52.2362C8.49998 51.9601 8.27612 51.7362 7.99998 51.7362C7.72384 51.7362 7.49998 51.9601 7.49998 52.2362L8.49998 52.2362ZM7.49998 37.5973C7.49998 37.8735 7.72384 38.0973 7.99998 38.0973C8.27612 38.0973 8.49998 37.8735 8.49998 37.5973L7.49998 37.5973ZM8.49998 22.9584C8.49998 22.6823 8.27612 22.4584 7.99998 22.4584C7.72384 22.4584 7.49998 22.6823 7.49998 22.9584L8.49998 22.9584ZM7.49998 8.31952C7.49998 8.59564 7.72383 8.81952 7.99998 8.81952C8.27612 8.81952 8.49998 8.59564 8.49998 8.31952L7.49998 8.31952ZM8.5 528L8.5 520.681L7.5 520.681L7.5 528L8.5 528ZM8.5 506.042L8.5 491.403L7.5 491.403L7.5 506.042L8.5 506.042ZM8.5 476.764L8.5 462.125L7.5 462.125L7.5 476.764L8.5 476.764ZM8.5 447.486L8.5 432.847L7.5 432.847L7.5 447.486L8.5 447.486ZM8.5 418.208L8.49999 403.569L7.49999 403.569L7.5 418.208L8.5 418.208ZM8.49999 388.931L8.49999 374.292L7.49999 374.292L7.49999 388.931L8.49999 388.931ZM8.49999 359.653L8.49999 345.014L7.49999 345.014L7.49999 359.653L8.49999 359.653ZM8.49999 330.375L8.49999 315.736L7.49999 315.736L7.49999 330.375L8.49999 330.375ZM8.49999 301.097L8.49999 286.458L7.49999 286.458L7.49999 301.097L8.49999 301.097ZM8.49999 271.819L8.49999 257.181L7.49999 257.181L7.49999 271.819L8.49999 271.819ZM8.49999 242.542L8.49999 227.903L7.49999 227.903L7.49999 242.542L8.49999 242.542ZM8.49999 213.264L8.49999 198.625L7.49999 198.625L7.49999 213.264L8.49999 213.264ZM8.49998 183.986L8.49998 169.347L7.49998 169.347L7.49998 183.986L8.49998 183.986ZM8.49998 154.708L8.49998 140.07L7.49998 140.07L7.49998 154.708L8.49998 154.708ZM8.49998 125.431L8.49998 110.792L7.49998 110.792L7.49998 125.431L8.49998 125.431ZM8.49998 96.1529L8.49998 81.514L7.49998 81.514L7.49998 96.1529L8.49998 96.1529ZM8.49998 66.8751L8.49998 52.2362L7.49998 52.2362L7.49998 66.8751L8.49998 66.8751ZM8.49998 37.5973L8.49998 22.9584L7.49998 22.9584L7.49998 37.5973L8.49998 37.5973ZM8.49998 8.31952L8.49998 1L7.49998 1L7.49998 8.31952L8.49998 8.31952ZM8.70708 0.292908C8.31656 -0.0976563 7.68339 -0.0976562 7.29287 0.292908L0.928909 6.65686C0.538385 7.04736 0.538385 7.68054 0.928909 8.07105C1.31943 8.46161 1.9526 8.46161 2.34312 8.07105L7.99998 2.41418L13.6568 8.07104C14.0474 8.46161 14.6805 8.46161 15.071 8.07104C15.4616 7.68054 15.4616 7.04736 15.071 6.65686L8.70708 0.292908ZM9 520.681C9 520.128 8.55228 519.681 8 519.681C7.44771 519.681 7 520.128 7 520.681L9 520.681ZM7 506.042C7 506.594 7.44771 507.042 8 507.042C8.55228 507.042 9 506.594 9 506.042L7 506.042ZM9 491.403C9 490.85 8.55228 490.403 8 490.403C7.44771 490.403 7 490.85 7 491.403L9 491.403ZM7 476.764C7 477.316 7.44771 477.764 8 477.764C8.55228 477.764 9 477.316 9 476.764L7 476.764ZM9 462.125C9 461.573 8.55228 461.125 8 461.125C7.44771 461.125 7 461.573 7 462.125L9 462.125ZM7 447.486C7 448.038 7.44771 448.486 8 448.486C8.55228 448.486 9 448.038 9 447.486L7 447.486ZM9 432.847C9 432.295 8.55228 431.847 8 431.847C7.44771 431.847 7 432.295 7 432.847L9 432.847ZM7 418.208C7 418.761 7.44771 419.208 8 419.208C8.55228 419.208 9 418.761 9 418.208L7 418.208ZM8.99999 403.569C8.99999 403.017 8.55228 402.569 7.99999 402.569C7.44771 402.569 6.99999 403.017 6.99999 403.569L8.99999 403.569ZM6.99999 388.931C6.99999 389.483 7.44771 389.931 7.99999 389.931C8.55228 389.931 8.99999 389.483 8.99999 388.931L6.99999 388.931ZM8.99999 374.292C8.99999 373.739 8.55228 373.292 7.99999 373.292C7.44771 373.292 6.99999 373.739 6.99999 374.292L8.99999 374.292ZM6.99999 359.653C6.99999 360.205 7.44771 360.653 7.99999 360.653C8.55228 360.653 8.99999 360.205 8.99999 359.653L6.99999 359.653ZM8.99999 345.014C8.99999 344.462 8.55228 344.014 7.99999 344.014C7.44771 344.014 6.99999 344.462 6.99999 345.014L8.99999 345.014ZM6.99999 330.375C6.99999 330.927 7.44771 331.375 7.99999 331.375C8.55228 331.375 8.99999 330.927 8.99999 330.375L6.99999 330.375ZM8.99999 315.736C8.99999 315.184 8.55228 314.736 7.99999 314.736C7.44771 314.736 6.99999 315.184 6.99999 315.736L8.99999 315.736ZM6.99999 301.097C6.99999 301.65 7.44771 302.097 7.99999 302.097C8.55227 302.097 8.99999 301.65 8.99999 301.097L6.99999 301.097ZM8.99999 286.458C8.99999 285.906 8.55227 285.458 7.99999 285.458C7.4477 285.458 6.99999 285.906 6.99999 286.458L8.99999 286.458ZM6.99999 271.819C6.99999 272.372 7.4477 272.819 7.99999 272.819C8.55227 272.819 8.99999 272.372 8.99999 271.819L6.99999 271.819ZM8.99999 257.181C8.99999 256.628 8.55227 256.181 7.99999 256.181C7.4477 256.181 6.99999 256.628 6.99999 257.181L8.99999 257.181ZM6.99999 242.542C6.99999 243.094 7.4477 243.542 7.99999 243.542C8.55227 243.542 8.99999 243.094 8.99999 242.542L6.99999 242.542ZM8.99999 227.903C8.99999 227.351 8.55227 226.903 7.99999 226.903C7.4477 226.903 6.99999 227.351 6.99999 227.903L8.99999 227.903ZM6.99999 213.264C6.99999 213.816 7.4477 214.264 7.99999 214.264C8.55227 214.264 8.99999 213.816 8.99999 213.264L6.99999 213.264ZM8.99999 198.625C8.99999 198.073 8.55227 197.625 7.99999 197.625C7.4477 197.625 6.99999 198.073 6.99999 198.625L8.99999 198.625ZM6.99998 183.986C6.99998 184.538 7.4477 184.986 7.99999 184.986C8.55227 184.986 8.99998 184.538 8.99998 183.986L6.99998 183.986ZM8.99998 169.347C8.99998 168.795 8.55227 168.347 7.99998 168.347C7.4477 168.347 6.99998 168.795 6.99998 169.347L8.99998 169.347ZM6.99998 154.708C6.99998 155.261 7.4477 155.708 7.99998 155.708C8.55227 155.708 8.99998 155.261 8.99998 154.708L6.99998 154.708ZM8.99998 140.07C8.99998 139.517 8.55227 139.07 7.99998 139.07C7.4477 139.07 6.99998 139.517 6.99998 140.07L8.99998 140.07ZM6.99998 125.431C6.99998 125.983 7.4477 126.431 7.99998 126.431C8.55227 126.431 8.99998 125.983 8.99998 125.431L6.99998 125.431ZM8.99998 110.792C8.99998 110.239 8.55227 109.792 7.99998 109.792C7.4477 109.792 6.99998 110.239 6.99998 110.792L8.99998 110.792ZM6.99998 96.1529C6.99998 96.7051 7.4477 97.1529 7.99998 97.1529C8.55227 97.1529 8.99998 96.7051 8.99998 96.1529L6.99998 96.1529ZM8.99998 81.514C8.99998 80.9617 8.55227 80.514 7.99998 80.514C7.4477 80.514 6.99998 80.9617 6.99998 81.514L8.99998 81.514ZM6.99998 66.8751C6.99998 67.4274 7.4477 67.8751 7.99998 67.8751C8.55226 67.8751 8.99998 67.4274 8.99998 66.8751L6.99998 66.8751ZM8.99998 52.2362C8.99998 51.6839 8.55226 51.2362 7.99998 51.2362C7.44769 51.2362 6.99998 51.6839 6.99998 52.2362L8.99998 52.2362ZM6.99998 37.5973C6.99998 38.1496 7.44769 38.5973 7.99998 38.5973C8.55226 38.5973 8.99998 38.1496 8.99998 37.5973L6.99998 37.5973ZM8.99998 22.9584C8.99998 22.4062 8.55226 21.9584 7.99998 21.9584C7.44769 21.9584 6.99998 22.4062 6.99998 22.9584L8.99998 22.9584ZM6.99998 8.31952C6.99998 8.87177 7.44769 9.31952 7.99998 9.31952C8.55226 9.31952 8.99998 8.87177 8.99998 8.31952L6.99998 8.31952ZM9 528L9 520.681L7 520.681L7 528L9 528ZM9 506.042L9 491.403L7 491.403L7 506.042L9 506.042ZM9 476.764L9 462.125L7 462.125L7 476.764L9 476.764ZM9 447.486L9 432.847L7 432.847L7 447.486L9 447.486ZM9 418.208L8.99999 403.569L6.99999 403.569L7 418.208L9 418.208ZM8.99999 388.931L8.99999 374.292L6.99999 374.292L6.99999 388.931L8.99999 388.931ZM8.99999 359.653L8.99999 345.014L6.99999 345.014L6.99999 359.653L8.99999 359.653ZM8.99999 330.375L8.99999 315.736L6.99999 315.736L6.99999 330.375L8.99999 330.375ZM8.99999 301.097L8.99999 286.458L6.99999 286.458L6.99999 301.097L8.99999 301.097ZM8.99999 271.819L8.99999 257.181L6.99999 257.181L6.99999 271.819L8.99999 271.819ZM8.99999 242.542L8.99999 227.903L6.99999 227.903L6.99999 242.542L8.99999 242.542ZM8.99999 213.264L8.99999 198.625L6.99999 198.625L6.99999 213.264L8.99999 213.264ZM8.99998 183.986L8.99998 169.347L6.99998 169.347L6.99998 183.986L8.99998 183.986ZM8.99998 154.708L8.99998 140.07L6.99998 140.07L6.99998 154.708L8.99998 154.708ZM8.99998 125.431L8.99998 110.792L6.99998 110.792L6.99998 125.431L8.99998 125.431ZM8.99998 96.1529L8.99998 81.514L6.99998 81.514L6.99998 96.1529L8.99998 96.1529ZM8.99998 66.8751L8.99998 52.2362L6.99998 52.2362L6.99998 66.8751L8.99998 66.8751ZM8.99998 37.5973L8.99998 22.9584L6.99998 22.9584L6.99998 37.5973L8.99998 37.5973ZM8.99998 8.31952L8.99998 1L6.99998 1L6.99998 8.31952L8.99998 8.31952Z" fill="#E99B86"/>
</svg>
